<svg width="100" height="100" viewBox="0 0 100 100" fill="none" xmlns="http://www.w3.org/2000/svg">
<path d="M76 22H24C20.6863 22 18 24.6863 18 28V72C18 75.3137 20.6863 78 24 78H76C79.3137 78 82 75.3137 82 72V28C82 24.6863 79.3137 22 76 22Z" stroke="#F39C12" stroke-width="4"/>
<path d="M18 36H82" stroke="#F39C12" stroke-width="4" stroke-linecap="round"/>
<path d="M34.5 16H31.5C30.6716 16 30 16.6716 30 17.5V22.5C30 23.3284 30.6716 24 31.5 24H34.5C35.3284 24 36 23.3284 36 22.5V17.5C36 16.6716 35.3284 16 34.5 16Z" fill="#F39C12"/>
<path d="M68.5 16H65.5C64.6716 16 64 16.6716 64 17.5V22.5C64 23.3284 64.6716 24 65.5 24H68.5C69.3284 24 70 23.3284 70 22.5V17.5C70 16.6716 69.3284 16 68.5 16Z" fill="#F39C12"/>
<path d="M66 58C63.6299 56.6265 60.947 55.8846 58.208 55.8452C55.469 55.8057 52.7658 56.4702 50.3572 57.7748C47.9486 59.0795 45.9153 60.9807 44.452 63.2963C42.9887 65.612 42.1444 68.2645 42 71" stroke="#F39C12" stroke-width="3.2" stroke-linecap="round"/>
<path d="M42 71L46 64L36 66L42 71Z" fill="#F39C12"/>
<path d="M34 58C36.3701 59.3734 39.053 60.1154 41.792 60.1548C44.531 60.1942 47.2342 59.5298 49.6428 58.2251C52.0514 56.9205 54.0847 55.0193 55.548 52.7036C57.0113 50.388 57.8556 47.7354 58 45" stroke="#F39C12" stroke-width="3.2" stroke-linecap="round"/>
<path d="M58 45L54 52L64 50L58 45Z" fill="#F39C12"/>
</svg>
