<svg width="100" height="100" viewBox="0 0 100 100" fill="none" xmlns="http://www.w3.org/2000/svg">
<path d="M78 60H22C20.8954 60 20 60.8954 20 62V68C20 69.1046 20.8954 70 22 70H78C79.1046 70 80 69.1046 80 68V62C80 60.8954 79.1046 60 78 60Z" stroke="#00B894" stroke-width="4"/>
<path d="M38 45H27C25.8954 45 25 45.8954 25 47V55C25 56.1046 25.8954 57 27 57H38C39.1046 57 40 56.1046 40 55V47C40 45.8954 39.1046 45 38 45Z" stroke="#00B894" stroke-width="3"/>
<path d="M58 45H47C45.8954 45 45 45.8954 45 47V55C45 56.1046 45.8954 57 47 57H58C59.1046 57 60 56.1046 60 55V47C60 45.8954 59.1046 45 58 45Z" stroke="#00B894" stroke-width="3"/>
<path d="M70 58C74.4183 58 78 54.4183 78 50C78 45.5817 74.4183 42 70 42C65.5817 42 62 45.5817 62 50C62 54.4183 65.5817 58 70 58Z" stroke="#00B894" stroke-width="3"/>
<path d="M75 55L85 65" stroke="#00B894" stroke-width="3" stroke-linecap="round"/>
<path d="M45 49C46.1046 49 47 48.1046 47 47C47 45.8954 46.1046 45 45 45C43.8954 45 43 45.8954 43 47C43 48.1046 43.8954 49 45 49Z" fill="#FF7675"/>
</svg>
