<svg width="100" height="100" viewBox="0 0 100 100" fill="none" xmlns="http://www.w3.org/2000/svg">
<path d="M28 60H22C20.8954 60 20 60.8954 20 62V78C20 79.1046 20.8954 80 22 80H28C29.1046 80 30 79.1046 30 78V62C30 60.8954 29.1046 60 28 60Z" fill="#0984E3"/>
<path d="M48 50H42C40.8954 50 40 50.8954 40 52V78C40 79.1046 40.8954 80 42 80H48C49.1046 80 50 79.1046 50 78V52C50 50.8954 49.1046 50 48 50Z" fill="#0984E3"/>
<path d="M68 40H62C60.8954 40 60 40.8954 60 42V78C60 79.1046 60.8954 80 62 80H68C69.1046 80 70 79.1046 70 78V42C70 40.8954 69.1046 40 68 40Z" fill="#0984E3"/>
<path d="M80 43C84.4183 43 88 39.4183 88 35C88 30.5817 84.4183 27 80 27C75.5817 27 72 30.5817 72 35C72 39.4183 75.5817 43 80 43Z" stroke="#0984E3" stroke-width="3"/>
<path d="M75 35L80 40L87 30" stroke="#0984E3" stroke-width="3" stroke-linecap="round" stroke-linejoin="round"/>
</svg>
