<svg width="100" height="100" viewBox="0 0 100 100" fill="none" xmlns="http://www.w3.org/2000/svg">
<path d="M36 35H24C21.7909 35 20 36.7909 20 39V61C20 63.2091 21.7909 65 24 65H36C38.2091 65 40 63.2091 40 61V39C40 36.7909 38.2091 35 36 35Z" stroke="#6C5CE7" stroke-width="4"/>
<path d="M76 35H64C61.7909 35 60 36.7909 60 39V61C60 63.2091 61.7909 65 64 65H76C78.2091 65 80 63.2091 80 61V39C80 36.7909 78.2091 35 76 35Z" stroke="#6C5CE7" stroke-width="4"/>
<path d="M40 50C50 35 50 65 60 50" stroke="#6C5CE7" stroke-width="3"/>
<path d="M50 53C51.6569 53 53 51.6569 53 50C53 48.3431 51.6569 47 50 47C48.3431 47 47 48.3431 47 50C47 51.6569 48.3431 53 50 53Z" fill="#6C5CE7"/>
</svg>
