<svg width="349" height="101" viewBox="0 0 349 101" fill="none" xmlns="http://www.w3.org/2000/svg">
<path d="M0 27.5073C0 24.1324 2.36936 22.7644 5.29211 24.4519L33.6317 40.8138C35.1644 41.6987 36.3765 43.8974 36.2716 45.6025L34.0087 82.3711L2.61147 63.77C1.16371 62.9123 0 60.879 0 59.2071V27.5073Z" fill="#5DCFDB"/>
<path d="M18.3621 17.2316C18.3621 13.8568 20.7314 12.4888 23.6542 14.1762L51.6644 30.3479C53.1257 31.1917 54.3104 33.2436 54.3104 34.931V73.4486L45.7759 78.2331L36.3362 82.7589L21.1055 74.6133C19.607 73.8119 18.3621 71.7076 18.3621 69.976V17.2316Z" fill="#00C8A6"/>
<path d="M33.8132 41.1902C35.0505 41.9182 36.0536 43.6635 36.0536 45.0884V83.1069C36.0536 83.1069 35.4021 83.1069 34.4899 82.591C33.5778 82.075 20.0807 74.096 20.0807 74.096C19.0802 73.249 18.3323 71.7805 18.3323 70.5503V32.0818L33.8132 41.1902Z" fill="#007C89"/>
<path d="M35.9482 6.1108C35.9482 2.7359 38.3176 1.36795 41.2403 3.0554L69.2505 19.2271C70.7119 20.0708 71.8966 22.1227 71.8966 23.8102V61.1823C71.8966 62.8246 71.3241 64.0673 70.3081 64.6301L40.4461 81.1724C38.7715 82.1 35.9482 79.1001 35.9482 76.393L35.9482 6.1108Z" fill="#2477F0"/>
<path d="M52.15 30.6732C53.385 31.3856 54.3861 33.1181 54.3861 34.5429V73.4328L47.811 77.1155L37.9902 82.72C37.0865 83.107 36.441 83.107 36.0537 83.107V21.3879L52.15 30.6732Z" fill="#195DCB"/>
<path d="M341.801 60.1911V25.5918H349V60.1911H341.801Z" fill="#2477F0"/>
<path d="M305.232 60.1911L316.935 25.5918H326.502L338.206 60.1911H330.357L328.035 53.1319H315.356L313.034 60.1911H305.232ZM317.353 46.8623H326.038L320.744 30.5147H322.694L317.353 46.8623Z" fill="#2477F0"/>
<path d="M291.754 60.1914V53.2251H298.72V60.1914H291.754Z" fill="white"/>
<path d="M259.29 60.1911L268.16 47.466L259.243 34.8337H267.324L274.012 44.6795H270.482L277.17 34.8337H285.251L276.334 47.466L285.158 60.1911H277.124L270.575 50.3454H273.919L267.371 60.1911H259.29Z" fill="white"/>
<path d="M249.223 60.1911V34.8338H256.189V60.1911H249.223ZM249.223 32.5581V25.5918H256.189V32.5581H249.223Z" fill="white"/>
<path d="M222.476 60.1911V25.5918H246.162V31.8615H229.675V40.639H243.839V46.9087H229.675V60.1911H222.476Z" fill="white"/>
<path d="M194.753 60.1911V25.0344H201.719V47.5588L199.118 46.7229L210.311 34.8337H218.903L209.707 45.051L218.856 60.1911H210.961L203.298 47.3266L207.339 46.3049L199.583 54.7573L201.719 50.7169V60.1911H194.753Z" fill="white"/>
<path d="M178.808 60.7486C176.269 60.7486 173.978 60.1758 171.935 59.0302C169.922 57.8537 168.312 56.2592 167.105 54.2467C165.928 52.2342 165.34 49.974 165.34 47.4662C165.34 44.9583 165.928 42.7136 167.105 40.7321C168.281 38.7196 169.891 37.1405 171.935 35.995C173.978 34.8494 176.269 34.2766 178.808 34.2766C180.697 34.2766 182.446 34.6017 184.056 35.2519C185.666 35.9021 187.044 36.8154 188.19 37.992C189.335 39.1375 190.156 40.4998 190.651 42.0789L184.614 44.6796C184.18 43.4102 183.437 42.404 182.384 41.6609C181.363 40.9178 180.171 40.5463 178.808 40.5463C177.601 40.5463 176.517 40.8404 175.557 41.4287C174.628 42.017 173.885 42.8374 173.328 43.8901C172.802 44.9428 172.539 46.1503 172.539 47.5126C172.539 48.8749 172.802 50.0824 173.328 51.1351C173.885 52.1878 174.628 53.0082 175.557 53.5965C176.517 54.1848 177.601 54.4789 178.808 54.4789C180.202 54.4789 181.409 54.1074 182.431 53.3643C183.452 52.6212 184.18 51.615 184.614 50.3456L190.651 52.9928C190.187 54.4789 189.382 55.8102 188.236 56.9868C187.09 58.1633 185.713 59.0922 184.103 59.7733C182.493 60.4235 180.728 60.7486 178.808 60.7486Z" fill="white"/>
<path d="M148.697 60.7486C146.189 60.7486 143.898 60.1758 141.823 59.0302C139.78 57.8847 138.139 56.3211 136.9 54.3396C135.693 52.3271 135.089 50.0514 135.089 47.5126C135.089 44.9428 135.693 42.6671 136.9 40.6856C138.139 38.7041 139.78 37.1405 141.823 35.995C143.898 34.8494 146.189 34.2766 148.697 34.2766C151.205 34.2766 153.48 34.8494 155.524 35.995C157.567 37.1405 159.193 38.7041 160.4 40.6856C161.638 42.6671 162.258 44.9428 162.258 47.5126C162.258 50.0514 161.638 52.3271 160.4 54.3396C159.193 56.3211 157.567 57.8847 155.524 59.0302C153.48 60.1758 151.205 60.7486 148.697 60.7486ZM148.697 54.4789C149.966 54.4789 151.065 54.1848 151.994 53.5965C152.954 53.0082 153.697 52.1878 154.223 51.1351C154.781 50.0824 155.059 48.8749 155.059 47.5126C155.059 46.1503 154.781 44.9583 154.223 43.9366C153.697 42.8839 152.954 42.0634 151.994 41.4751C151.065 40.8559 149.966 40.5463 148.697 40.5463C147.427 40.5463 146.313 40.8559 145.353 41.4751C144.393 42.0634 143.634 42.8839 143.077 43.9366C142.551 44.9583 142.288 46.1503 142.288 47.5126C142.288 48.8749 142.551 50.0824 143.077 51.1351C143.634 52.1878 144.393 53.0082 145.353 53.5965C146.313 54.1848 147.427 54.4789 148.697 54.4789Z" fill="white"/>
<path d="M128.778 60.4698C125.713 60.4698 123.329 59.6493 121.626 58.0084C119.954 56.3364 119.118 54.0143 119.118 51.042V40.8712H114.845V34.8338H115.077C116.378 34.8338 117.369 34.5087 118.05 33.8585C118.762 33.2083 119.118 32.233 119.118 30.9326V29.075H126.084V34.8338H132.029V40.8712H126.084V50.5776C126.084 51.4445 126.239 52.1721 126.549 52.7604C126.858 53.3177 127.338 53.7357 127.988 54.0143C128.639 54.293 129.444 54.4323 130.403 54.4323C130.62 54.4323 130.868 54.4168 131.146 54.3859C131.425 54.3549 131.719 54.3239 132.029 54.293V60.1911C131.564 60.253 131.038 60.315 130.45 60.3769C129.861 60.4388 129.304 60.4698 128.778 60.4698Z" fill="white"/>
<path d="M99.5908 60.7484C97.4235 60.7484 95.3801 60.3614 93.4604 59.5873C91.5718 58.7823 89.9309 57.6522 88.5376 56.197C87.1753 54.7419 86.1536 53.0235 85.4724 51.042L91.3706 48.3948C92.2375 50.2834 93.4295 51.7696 94.9466 52.8532C96.4947 53.9369 98.1975 54.4787 100.055 54.4787C101.046 54.4787 101.897 54.3239 102.61 54.0143C103.322 53.7047 103.879 53.2867 104.281 52.7603C104.684 52.203 104.885 51.5528 104.885 50.8098C104.885 50.0048 104.638 49.3236 104.142 48.7663C103.647 48.178 102.873 47.7136 101.82 47.3731L95.0395 45.1438C92.2839 44.246 90.2095 42.9765 88.8162 41.3356C87.423 39.6637 86.7263 37.6667 86.7263 35.3446C86.7263 33.3011 87.2217 31.5054 88.2125 29.9573C89.2342 28.4092 90.643 27.2017 92.4387 26.3348C94.2654 25.4679 96.3553 25.0344 98.7084 25.0344C100.783 25.0344 102.702 25.3905 104.467 26.1026C106.232 26.8147 107.749 27.8209 109.019 29.1213C110.319 30.4217 111.294 31.9852 111.944 33.812L106.093 36.4592C105.442 34.8492 104.467 33.5952 103.167 32.6974C101.866 31.7685 100.38 31.3041 98.7084 31.3041C97.7486 31.3041 96.8972 31.4589 96.1541 31.7685C95.411 32.0781 94.8382 32.5271 94.4357 33.1153C94.0332 33.6726 93.832 34.3228 93.832 35.0659C93.832 35.8709 94.0952 36.583 94.6215 37.2022C95.1478 37.7905 95.9374 38.2549 96.99 38.5955L103.631 40.7318C106.418 41.6297 108.492 42.8837 109.854 44.4936C111.248 46.1036 111.944 48.0697 111.944 50.3918C111.944 52.4043 111.418 54.2 110.365 55.7791C109.313 57.3271 107.857 58.5501 106 59.448C104.173 60.3149 102.037 60.7484 99.5908 60.7484Z" fill="white"/>
</svg>
