<svg width="236" height="144" viewBox="0 0 236 144" fill="none" xmlns="http://www.w3.org/2000/svg">
<path d="M69.137 33.3806C69.137 29.7915 71.6567 28.3368 74.7649 30.1313L111.938 51.5933C113.568 52.5344 114.857 54.8726 114.746 56.6859L111.865 103.49L71.9141 79.821C70.3745 78.9089 69.137 76.7466 69.137 74.9686V33.3806Z" fill="#5DCFDB"/>
<path d="M92.2068 20.4705C92.2068 16.8814 94.7265 15.4267 97.8347 17.2212L134.558 38.4233C136.112 39.3206 137.372 41.5027 137.372 43.2973V92.2796L126.649 98.2908L114.789 103.977L95.1243 93.4599C93.5307 92.6076 92.2068 90.3699 92.2068 88.5284V20.4705Z" fill="#00C8A6"/>
<path d="M111.509 51.6732C113.051 52.59 114.302 54.7881 114.302 56.5826V104.464C114.302 104.464 113.49 104.464 112.352 103.815C111.215 103.165 94.3867 93.1158 94.3867 93.1158C93.1393 92.0491 92.2068 90.1995 92.2068 88.6503V40.2017L111.509 51.6732Z" fill="#007C89"/>
<path d="M114.302 6.49856C114.302 2.90951 116.822 1.45475 119.93 3.24928L156.653 24.4514C158.207 25.3487 159.467 27.5308 159.467 29.3253V77.364C159.467 79.1106 158.858 80.4321 157.778 81.0306L119.085 102.465C117.304 103.451 114.302 100.261 114.302 97.382L114.302 6.49856Z" fill="#2477F0"/>
<path d="M134.558 38.4234C136.112 39.3207 137.372 41.5028 137.372 43.2973V92.2796L129.098 96.9181L116.739 103.977C115.602 104.464 114.789 104.464 114.302 104.464V26.7285L134.558 38.4234Z" fill="#195DCB"/>
<path d="M229.553 143.293V112.308H236V143.293H229.553Z" fill="#195DCB"/>
<path d="M196.804 143.293L207.285 112.308H215.853L226.333 143.293H219.305L217.225 136.972H205.871L203.791 143.293H196.804ZM207.659 131.357H215.437L210.695 116.717H212.442L207.659 131.357Z" fill="#195DCB"/>
<path d="M184.734 143.293V137.055H190.973V143.293H184.734Z" fill="black"/>
<path d="M155.661 143.293L163.605 131.897L155.619 120.585H162.856L168.845 129.402H165.684L171.673 120.585H178.91L170.925 131.897L178.827 143.293H171.632L165.768 134.476H168.762L162.898 143.293H155.661Z" fill="black"/>
<path d="M146.645 143.293V120.585H152.884V143.293H146.645ZM146.645 118.547V112.308H152.884V118.547H146.645Z" fill="black"/>
<path d="M122.693 143.293V112.308H143.904V117.923H129.139V125.784H141.824V131.398H129.139V143.293H122.693Z" fill="black"/>
<path d="M97.8655 143.293V111.809H104.104V131.981L101.775 131.232L111.798 120.585H119.493L111.258 129.735L119.451 143.293H112.381L105.518 131.773L109.137 130.858L102.191 138.427L104.104 134.809V143.293H97.8655Z" fill="black"/>
<path d="M83.5862 143.792C81.3126 143.792 79.2608 143.28 77.4308 142.254C75.6285 141.2 74.1867 139.772 73.1054 137.97C72.0517 136.167 71.5249 134.143 71.5249 131.898C71.5249 129.652 72.0517 127.641 73.1054 125.867C74.159 124.065 75.6008 122.65 77.4308 121.625C79.2608 120.599 81.3126 120.086 83.5862 120.086C85.2776 120.086 86.8442 120.377 88.286 120.959C89.7278 121.541 90.9617 122.359 91.9876 123.413C93.0135 124.439 93.7483 125.659 94.1919 127.073L88.7851 129.402C88.3969 128.265 87.7315 127.364 86.7887 126.699C85.8737 126.033 84.8062 125.7 83.5862 125.7C82.5049 125.7 81.5344 125.964 80.6749 126.491C79.8431 127.018 79.1776 127.752 78.6785 128.695C78.2072 129.638 77.9715 130.719 77.9715 131.939C77.9715 133.159 78.2072 134.24 78.6785 135.183C79.1776 136.126 79.8431 136.861 80.6749 137.387C81.5344 137.914 82.5049 138.178 83.5862 138.178C84.834 138.178 85.9153 137.845 86.8303 137.18C87.7453 136.514 88.3969 135.613 88.7851 134.476L94.1919 136.847C93.776 138.178 93.0551 139.37 92.0292 140.424C91.0033 141.477 89.7694 142.309 88.3276 142.919C86.8858 143.501 85.3053 143.792 83.5862 143.792Z" fill="black"/>
<path d="M56.6202 143.792C54.3743 143.792 52.3225 143.28 50.4648 142.254C48.6348 141.228 47.1652 139.827 46.0561 138.053C44.9748 136.251 44.4341 134.213 44.4341 131.939C44.4341 129.638 44.9748 127.6 46.0561 125.825C47.1652 124.051 48.6348 122.65 50.4648 121.625C52.3225 120.599 54.3743 120.086 56.6202 120.086C58.8661 120.086 60.9041 120.599 62.734 121.625C64.564 122.65 66.0197 124.051 67.1011 125.825C68.2102 127.6 68.7647 129.638 68.7647 131.939C68.7647 134.213 68.2102 136.251 67.1011 138.053C66.0197 139.827 64.564 141.228 62.734 142.254C60.9041 143.28 58.8661 143.792 56.6202 143.792ZM56.6202 138.178C57.757 138.178 58.7413 137.914 59.5731 137.387C60.4327 136.861 61.0981 136.126 61.5695 135.183C62.0686 134.24 62.3181 133.159 62.3181 131.939C62.3181 130.719 62.0686 129.652 61.5695 128.737C61.0981 127.794 60.4327 127.059 59.5731 126.532C58.7413 125.978 57.757 125.7 56.6202 125.7C55.4834 125.7 54.4852 125.978 53.6257 126.532C52.7661 127.059 52.0868 127.794 51.5877 128.737C51.1163 129.652 50.8807 130.719 50.8807 131.939C50.8807 133.159 51.1163 134.24 51.5877 135.183C52.0868 136.126 52.7661 136.861 53.6257 137.387C54.4852 137.914 55.4834 138.178 56.6202 138.178Z" fill="black"/>
<path d="M38.7819 143.543C36.0369 143.543 33.9019 142.808 32.3769 141.339C30.8797 139.841 30.131 137.762 30.131 135.1V125.992H26.3047V120.585H26.5126C27.6772 120.585 28.5645 120.294 29.1745 119.711C29.8122 119.129 30.131 118.256 30.131 117.091V115.428H36.3697V120.585H41.6933V125.992H36.3697V134.684C36.3697 135.46 36.5083 136.112 36.7856 136.639C37.0628 137.138 37.4926 137.512 38.0749 137.762C38.6572 138.011 39.3781 138.136 40.2376 138.136C40.4317 138.136 40.6535 138.122 40.9031 138.095C41.1526 138.067 41.416 138.039 41.6933 138.011V143.293C41.2774 143.349 40.806 143.404 40.2792 143.46C39.7524 143.515 39.2533 143.543 38.7819 143.543Z" fill="black"/>
<path d="M12.6436 143.792C10.7027 143.792 8.87271 143.446 7.15362 142.753C5.46226 142.032 3.99272 141.02 2.74499 139.717C1.525 138.413 0.609999 136.875 0 135.1L5.28204 132.729C6.0584 134.421 7.1259 135.752 8.48453 136.722C9.87089 137.693 11.3959 138.178 13.0595 138.178C13.9468 138.178 14.7093 138.039 15.347 137.762C15.9847 137.485 16.4838 137.11 16.8443 136.639C17.2047 136.14 17.385 135.558 17.385 134.892C17.385 134.171 17.1632 133.561 16.7195 133.062C16.2759 132.535 15.5827 132.119 14.64 131.814L8.56771 129.818C6.09999 129.014 4.24227 127.877 2.99454 126.408C1.74682 124.91 1.12295 123.122 1.12295 121.042C1.12295 119.212 1.56659 117.604 2.45386 116.218C3.36886 114.831 4.63044 113.75 6.23862 112.974C7.87453 112.197 9.74612 111.809 11.8534 111.809C13.7111 111.809 15.4302 112.128 17.0107 112.766C18.5911 113.403 19.9497 114.305 21.0865 115.469C22.2511 116.634 23.1245 118.034 23.7068 119.67L18.4663 122.04C17.8841 120.599 17.0107 119.476 15.8461 118.672C14.6816 117.84 13.3507 117.424 11.8534 117.424C10.9938 117.424 10.2313 117.563 9.56589 117.84C8.90044 118.117 8.38749 118.519 8.02703 119.046C7.66658 119.545 7.48635 120.127 7.48635 120.793C7.48635 121.514 7.72203 122.151 8.19339 122.706C8.66476 123.233 9.3718 123.649 10.3145 123.954L16.262 125.867C18.7575 126.671 20.6152 127.794 21.8352 129.236C23.0829 130.678 23.7068 132.438 23.7068 134.518C23.7068 136.32 23.2354 137.928 22.2927 139.342C21.35 140.729 20.0468 141.824 18.3831 142.628C16.7472 143.404 14.8341 143.792 12.6436 143.792Z" fill="black"/>
</svg>
