<svg width="260" height="75" viewBox="0 0 260 75" fill="none" xmlns="http://www.w3.org/2000/svg">
<path d="M0 20.4924C0 17.9781 1.76514 16.959 3.94254 18.2162L25.0552 30.4056C26.197 31.0648 27.1 32.7028 27.0218 33.9731L25.336 61.3652L1.94551 47.5076C0.866944 46.8686 0 45.3539 0 44.1083V20.4924Z" fill="#5DCFDB"/>
<path d="M13.6794 12.8373C13.6794 10.323 15.4446 9.30389 17.622 10.561L38.4892 22.6087C39.5779 23.2373 40.4605 24.7659 40.4605 26.023V54.7181L34.1024 58.2824L27.07 61.6542L15.7233 55.5858C14.6069 54.9887 13.6794 53.4211 13.6794 52.1311V12.8373Z" fill="#00C8A6"/>
<path d="M25.1903 30.6861C26.1121 31.2284 26.8594 32.5286 26.8594 33.5901V61.9134C26.8594 61.9134 26.374 61.9134 25.6945 61.529C25.0149 61.1446 14.9598 55.2004 14.9598 55.2004C14.2144 54.5694 13.6572 53.4753 13.6572 52.5589V23.9004L25.1903 30.6861Z" fill="#007C89"/>
<path d="M26.781 4.55246C26.781 2.03821 28.5461 1.0191 30.7236 2.27623L51.5908 14.3239C52.6795 14.9525 53.562 16.4811 53.562 17.7383V45.5799C53.562 46.8035 53.1355 47.7292 52.3786 48.1485L30.1318 60.4723C28.8843 61.1633 26.781 58.9284 26.781 56.9117L26.781 4.55246Z" fill="#2477F0"/>
<path d="M38.8509 22.851C39.7709 23.3817 40.5167 24.6724 40.5167 25.7338V54.7063L35.6184 57.4499L28.3021 61.6251C27.6288 61.9134 27.1479 61.9134 26.8594 61.9134V15.9336L38.8509 22.851Z" fill="#195DCB"/>
<path d="M254.637 44.8417V19.0657H260V44.8417H254.637Z" fill="#195DCB"/>
<path d="M227.393 44.8417L236.112 19.0657H243.24L251.958 44.8417H246.111L244.381 39.5827H234.936L233.206 44.8417H227.393ZM236.424 34.9119H242.894L238.949 22.7331H240.402L236.424 34.9119Z" fill="#195DCB"/>
<path d="M217.353 44.8418V39.652H222.543V44.8418H217.353Z" fill="black"/>
<path d="M193.167 44.8417L199.776 35.3616L193.133 25.9508H199.153L204.135 33.2857H201.505L206.488 25.9508H212.508L205.865 35.3616L212.439 44.8417H206.453L201.575 37.5068H204.066L199.187 44.8417H193.167Z" fill="black"/>
<path d="M185.667 44.8417V25.9508H190.857V44.8417H185.667ZM185.667 24.2555V19.0657H190.857V24.2555H185.667Z" fill="black"/>
<path d="M165.742 44.8417V19.0657H183.387V23.7365H171.104V30.2756H181.657V34.9465H171.104V44.8417H165.742Z" fill="black"/>
<path d="M145.088 44.8417V18.6505H150.278V35.4309L148.341 34.8081L156.679 25.9508H163.08L156.229 33.5625L163.045 44.8417H157.163L151.455 35.2579L154.465 34.4967L148.687 40.7937L150.278 37.7836V44.8417H145.088Z" fill="black"/>
<path d="M133.21 45.2569C131.318 45.2569 129.611 44.8302 128.089 43.9767C126.59 43.1002 125.39 41.9124 124.491 40.4131C123.614 38.9138 123.176 37.23 123.176 35.3617C123.176 33.4933 123.614 31.8211 124.491 30.3449C125.367 28.8456 126.567 27.6692 128.089 26.8158C129.611 25.9624 131.318 25.5356 133.21 25.5356C134.617 25.5356 135.92 25.7778 137.119 26.2622C138.319 26.7466 139.345 27.427 140.199 28.3035C141.052 29.157 141.663 30.1719 142.032 31.3482L137.534 33.2857C137.212 32.3401 136.658 31.5904 135.874 31.0368C135.113 30.4833 134.225 30.2065 133.21 30.2065C132.31 30.2065 131.503 30.4256 130.788 30.8638C130.096 31.3021 129.542 31.9133 129.127 32.6976C128.735 33.4818 128.539 34.3814 128.539 35.3963C128.539 36.4112 128.735 37.3107 129.127 38.095C129.542 38.8792 130.096 39.4904 130.788 39.9287C131.503 40.3669 132.31 40.5861 133.21 40.5861C134.248 40.5861 135.147 40.3093 135.908 39.7557C136.67 39.2021 137.212 38.4525 137.534 37.5068L142.032 39.4789C141.686 40.5861 141.087 41.5779 140.233 42.4544C139.38 43.3309 138.353 44.0229 137.154 44.5303C135.954 45.0147 134.64 45.2569 133.21 45.2569Z" fill="black"/>
<path d="M110.777 45.2569C108.909 45.2569 107.202 44.8302 105.656 43.9767C104.134 43.1233 102.912 41.9585 101.989 40.4823C101.089 38.983 100.64 37.2877 100.64 35.3963C100.64 33.4818 101.089 31.7865 101.989 30.3103C102.912 28.8341 104.134 27.6692 105.656 26.8158C107.202 25.9624 108.909 25.5356 110.777 25.5356C112.645 25.5356 114.341 25.9624 115.863 26.8158C117.385 27.6692 118.596 28.8341 119.496 30.3103C120.419 31.7865 120.88 33.4818 120.88 35.3963C120.88 37.2877 120.419 38.983 119.496 40.4823C118.596 41.9585 117.385 43.1233 115.863 43.9767C114.341 44.8302 112.645 45.2569 110.777 45.2569ZM110.777 40.5861C111.723 40.5861 112.542 40.3669 113.234 39.9287C113.949 39.4904 114.502 38.8792 114.894 38.095C115.309 37.3107 115.517 36.4112 115.517 35.3963C115.517 34.3814 115.309 33.4933 114.894 32.7322C114.502 31.9479 113.949 31.3367 113.234 30.8984C112.542 30.4371 111.723 30.2065 110.777 30.2065C109.831 30.2065 109.001 30.4371 108.286 30.8984C107.571 31.3367 107.006 31.9479 106.591 32.7322C106.199 33.4933 106.002 34.3814 106.002 35.3963C106.002 36.4112 106.199 37.3107 106.591 38.095C107.006 38.8792 107.571 39.4904 108.286 39.9287C109.001 40.3669 109.831 40.5861 110.777 40.5861Z" fill="black"/>
<path d="M95.9377 45.0492C93.6542 45.0492 91.8781 44.438 90.6095 43.2155C89.364 41.9699 88.7412 40.24 88.7412 38.0257V30.4486H85.5581V25.9508H85.7311C86.6999 25.9508 87.438 25.7086 87.9454 25.2242C88.4759 24.7398 88.7412 24.0132 88.7412 23.0445V21.6605H93.931V25.9508H98.3596V30.4486H93.931V37.6797C93.931 38.3256 94.0463 38.8676 94.277 39.3058C94.5076 39.721 94.8651 40.0324 95.3495 40.24C95.8339 40.4476 96.4336 40.5514 97.1487 40.5514C97.3101 40.5514 97.4946 40.5399 97.7022 40.5168C97.9098 40.4937 98.129 40.4707 98.3596 40.4476V44.8416C98.0136 44.8878 97.6215 44.9339 97.1833 44.98C96.745 45.0262 96.3298 45.0492 95.9377 45.0492Z" fill="black"/>
<path d="M74.1938 45.2569C72.5792 45.2569 71.0568 44.9686 69.6268 44.3919C68.2197 43.7922 66.9973 42.9503 65.9593 41.8662C64.9444 40.7821 64.1832 39.502 63.6758 38.0258L68.0698 36.0537C68.7157 37.4607 69.6037 38.5678 70.7339 39.3751C71.8872 40.1824 73.1558 40.5861 74.5398 40.5861C75.2779 40.5861 75.9122 40.4707 76.4427 40.2401C76.9732 40.0094 77.3884 39.698 77.6882 39.3059C77.9881 38.8907 78.138 38.4064 78.138 37.8528C78.138 37.2531 77.9535 36.7456 77.5845 36.3304C77.2154 35.8922 76.6388 35.5462 75.8545 35.2925L70.8031 33.6317C68.7503 32.9628 67.2048 32.0171 66.1669 30.7946C65.1289 29.5491 64.6099 28.0614 64.6099 26.3314C64.6099 24.8091 64.979 23.4713 65.7171 22.318C66.4783 21.1647 67.5278 20.2651 68.8656 19.6193C70.2265 18.9734 71.7834 18.6505 73.5364 18.6505C75.0818 18.6505 76.5119 18.9158 77.8266 19.4463C79.1414 19.9768 80.2716 20.7264 81.2173 21.6952C82.1861 22.664 82.9126 23.8288 83.397 25.1897L79.0376 27.1618C78.5532 25.9624 77.8266 25.0282 76.8579 24.3593C75.8891 23.6673 74.782 23.3213 73.5364 23.3213C72.8214 23.3213 72.1871 23.4367 71.6335 23.6673C71.0799 23.898 70.6532 24.2324 70.3533 24.6707C70.0535 25.0859 69.9035 25.5702 69.9035 26.1238C69.9035 26.7235 70.0996 27.2541 70.4917 27.7154C70.8838 28.1536 71.472 28.4996 72.2563 28.7533L77.2039 30.3449C79.2798 31.0138 80.8252 31.9479 81.8401 33.1474C82.878 34.3468 83.397 35.8115 83.397 37.5414C83.397 39.0407 83.0049 40.3785 82.2207 41.5548C81.4364 42.7081 80.3523 43.6192 78.9684 44.2881C77.6075 44.934 76.016 45.2569 74.1938 45.2569Z" fill="black"/>
</svg>
